<svg width="25" height="25" viewBox="0 0 25 25" fill="none" xmlns="http://www.w3.org/2000/svg">
<rect width="25" height="25" rx="12.5" fill="black"/>
<path d="M16.6404 15.212C16.4665 15.6138 16.2606 15.9836 16.0221 16.3236C15.697 16.7872 15.4308 17.108 15.2257 17.2862C14.9076 17.5786 14.5669 17.7284 14.202 17.7369C13.9401 17.7369 13.6242 17.6624 13.2565 17.5112C12.8876 17.3607 12.5486 17.2862 12.2386 17.2862C11.9135 17.2862 11.5648 17.3607 11.1918 17.5112C10.8183 17.6624 10.5174 17.7412 10.2873 17.749C9.93745 17.7639 9.5887 17.6099 9.24059 17.2862C9.0184 17.0924 8.7405 16.7602 8.40757 16.2895C8.05037 15.787 7.75671 15.2042 7.52664 14.5398C7.28025 13.8221 7.15674 13.1271 7.15674 12.4543C7.15674 11.6837 7.32327 11.0189 7.65683 10.4619C7.91898 10.0145 8.26773 9.66156 8.70422 9.40247C9.14071 9.14337 9.61234 9.01134 10.1202 9.00289C10.3981 9.00289 10.7626 9.08885 11.2155 9.2578C11.6671 9.42731 11.9571 9.51327 12.0842 9.51327C12.1792 9.51327 12.5014 9.41276 13.0475 9.21237C13.5639 9.02653 13.9997 8.94958 14.3568 8.97989C15.3243 9.05797 16.0512 9.43938 16.5346 10.1265C15.6693 10.6508 15.2413 11.3852 15.2498 12.3272C15.2576 13.061 15.5238 13.6716 16.047 14.1564C16.2841 14.3815 16.5488 14.5554 16.8434 14.6789C16.7795 14.8642 16.7121 15.0416 16.6404 15.212ZM14.4214 6.48007C14.4214 7.0552 14.2113 7.59219 13.7925 8.08923C13.287 8.68012 12.6757 9.02156 12.0128 8.96768C12.0043 8.89868 11.9994 8.82606 11.9994 8.74975C11.9994 8.19763 12.2398 7.60675 12.6666 7.12362C12.8797 6.879 13.1508 6.67561 13.4794 6.51336C13.8074 6.35353 14.1176 6.26514 14.4093 6.25C14.4178 6.32689 14.4214 6.40378 14.4214 6.48006V6.48007Z" fill="white"/>
</svg>
