<svg width="17" height="18" viewBox="0 0 17 18" fill="none" xmlns="http://www.w3.org/2000/svg">
<path d="M13.5 5.8C13.5 4.52696 12.9732 3.30606 12.0355 2.40589C11.0979 1.50571 9.82608 1 8.5 1C7.17392 1 5.90215 1.50571 4.96447 2.40589C4.02678 3.30606 3.5 4.52696 3.5 5.8C3.5 11.4 1 13 1 13H16C16 13 13.5 11.4 13.5 5.8Z" stroke="#282B33" stroke-linecap="round" stroke-linejoin="round"/>
<path d="M10.5 16C10.2968 16.3042 10.005 16.5566 9.65402 16.7321C9.30302 16.9076 8.90506 17 8.5 17C8.09494 17 7.69698 16.9076 7.34598 16.7321C6.99498 16.5566 6.70325 16.3042 6.5 16" stroke="#282B33" stroke-linecap="round" stroke-linejoin="round"/>
</svg>
