<svg width="27" height="28" viewBox="0 0 27 28" fill="none" xmlns="http://www.w3.org/2000/svg">
<path d="M4.0343 25.5239C3.67723 25.5222 3.33539 25.379 3.08375 25.1257C2.8321 24.8724 2.69117 24.5296 2.69187 24.1726C2.695 24.0368 2.71618 23.9021 2.75487 23.772L3.72192 20.2739C3.76235 20.1448 3.71667 20.0146 3.65735 19.9117L3.6458 19.8907C3.6416 19.8838 3.62165 19.856 3.60747 19.8355C3.5933 19.8151 3.57702 19.793 3.56232 19.7715L3.55235 19.7573C2.33128 17.9066 1.68049 15.7381 1.68072 13.5208C1.67127 10.4974 2.8541 7.64083 5.01237 5.47363C7.24572 3.23608 10.233 2.00391 13.4313 2.00391C16.1445 2.00257 18.7772 2.92545 20.8957 4.62051C22.9668 6.28738 24.4064 8.61051 24.9492 11.1662C25.1164 11.9426 25.2005 12.7345 25.2002 13.5287C25.2002 16.6225 24.0116 19.5284 21.8528 21.7119C19.6751 23.9169 16.7508 25.1275 13.6192 25.1275C12.5167 25.1275 11.106 24.8461 10.4288 24.655C9.614 24.4272 8.84172 24.13 8.75667 24.0985C8.66666 24.0641 8.57113 24.0463 8.47475 24.046C8.37021 24.0454 8.26663 24.0659 8.17025 24.1064L8.12562 24.1237L4.58292 25.4037C4.40892 25.4769 4.22298 25.5177 4.0343 25.5239Z" fill="#888888"/>
</svg>
