<svg width="25" height="25" viewBox="0 0 25 25" fill="none" xmlns="http://www.w3.org/2000/svg">
<rect x="0.25" y="0.25" width="24.5" height="24.5" rx="12.25" stroke="#A9A9A9" stroke-width="0.5"/>
<path fill-rule="evenodd" clip-rule="evenodd" d="M18.76 13.1374C18.76 12.712 18.7218 12.3029 18.6509 11.9102H13V14.2311H16.2291C16.09 14.9811 15.6673 15.6165 15.0318 16.042V17.5474H16.9709C18.1055 16.5029 18.76 14.9647 18.76 13.1374Z" fill="#4285F4"/>
<path fill-rule="evenodd" clip-rule="evenodd" d="M13 19.0006C14.62 19.0006 15.9782 18.4634 16.9709 17.547L15.0318 16.0415C14.4945 16.4015 13.8073 16.6143 13 16.6143C11.4373 16.6143 10.1145 15.5588 9.64273 14.1406H7.63818V15.6952C8.62546 17.6561 10.6545 19.0006 13 19.0006Z" fill="#34A853"/>
<path fill-rule="evenodd" clip-rule="evenodd" d="M9.64273 14.1392C9.52273 13.7792 9.45455 13.3947 9.45455 12.9992C9.45455 12.6038 9.52273 12.2192 9.64273 11.8592V10.3047H7.63818C7.23182 11.1147 7 12.0311 7 12.9992C7 13.9674 7.23182 14.8838 7.63818 15.6938L9.64273 14.1392Z" fill="#FBBC05"/>
<path fill-rule="evenodd" clip-rule="evenodd" d="M13 9.38636C13.8809 9.38636 14.6718 9.68909 15.2936 10.2836L17.0145 8.56273C15.9755 7.59455 14.6173 7 13 7C10.6545 7 8.62546 8.34455 7.63818 10.3055L9.64273 11.86C10.1145 10.4418 11.4373 9.38636 13 9.38636Z" fill="#EA4335"/>
</svg>
