<svg width="25" height="25" viewBox="0 0 25 25" fill="none" xmlns="http://www.w3.org/2000/svg">
<rect width="25" height="25" rx="12.5" fill="#FFE600"/>
<path d="M12.9863 7.3125C14.1852 7.3125 15.2941 7.54583 16.3129 8.01249C17.3317 8.47915 18.1371 9.11372 18.7291 9.91617C19.3212 10.7186 19.6172 11.5939 19.6172 12.542C19.6172 13.4902 19.3212 14.3667 18.7291 15.1716C18.1371 15.9766 17.3329 16.6124 16.3166 17.079C15.3002 17.5457 14.1901 17.779 12.9863 17.779C12.6064 17.779 12.2142 17.7518 11.8096 17.6975C10.0532 18.9172 9.11834 19.5345 9.00486 19.5493C8.95058 19.5691 8.89877 19.5666 8.84944 19.5419C8.8297 19.5271 8.8149 19.5073 8.80503 19.4827C8.79516 19.458 8.79024 19.4358 8.79024 19.416V19.3864C8.81985 19.1938 9.04432 18.3913 9.46369 16.979C8.51149 16.5049 7.7554 15.8766 7.19543 15.0938C6.63546 14.3112 6.35547 13.4606 6.35547 12.542C6.35547 11.5939 6.65149 10.7186 7.24353 9.91617C7.83557 9.11372 8.64099 8.47915 9.6598 8.01249C10.6786 7.54583 11.7874 7.3125 12.9863 7.3125Z" fill="black"/>
</svg>
