<svg width="29" height="29" viewBox="0 0 29 29" fill="none" xmlns="http://www.w3.org/2000/svg">
<rect x="0.262695" y="0.40625" width="28.2828" height="28.2828" rx="14.1414" fill="#F4F4F4"/>
<path d="M18.6255 8.70594C18.3306 8.41052 17.8552 8.41052 17.5602 8.70594L12.5589 13.7159C12.3241 13.951 12.3241 14.3308 12.5589 14.566L17.5602 19.5759C17.8552 19.8714 18.3306 19.8714 18.6255 19.5759C18.9204 19.2805 18.9204 18.8043 18.6255 18.5088L14.2681 14.1379L18.6315 9.76701C18.9204 9.47763 18.9204 8.99532 18.6255 8.70594Z" fill="black"/>
<path d="M14.5845 8.70594C14.2896 8.41052 13.8141 8.41052 13.5192 8.70594L8.51784 13.7159C8.28312 13.951 8.28312 14.3308 8.51784 14.566L13.5192 19.5759C13.8141 19.8714 14.2896 19.8714 14.5845 19.5759C14.8794 19.2805 14.8794 18.8043 14.5845 18.5088L10.2271 14.1379L14.5905 9.76701C14.8794 9.47763 14.8794 8.99532 14.5845 8.70594Z" fill="black"/>
</svg>
