<svg width="12" height="12" viewBox="0 0 12 12" fill="none" xmlns="http://www.w3.org/2000/svg">
<g clip-path="url(#clip0_157_1952)">
<path d="M6.00005 12C4.40005 12 2.90005 11.4 1.75005 10.25C-0.599951 7.9 -0.599951 4.1 1.75005 1.75C2.90005 0.6 4.40005 0 6.00005 0C7.60005 0 9.10005 0.6 10.25 1.75C12.6 4.1 12.6 7.9 10.25 10.25C9.10005 11.4 7.60005 12 6.00005 12ZM6.00005 1C4.65005 1 3.40005 1.5 2.45005 2.45C0.500049 4.4 0.500049 7.6 2.45005 9.55C3.40005 10.5 4.65005 11 6.00005 11C7.35005 11 8.60005 10.5 9.55005 9.55C11.5 7.6 11.5 4.45 9.55005 2.5C8.60005 1.5 7.35005 1 6.00005 1Z" fill="white"/>
<path d="M6 9C5.7 9 5.5 8.8 5.5 8.5V3.5C5.5 3.2 5.7 3 6 3C6.3 3 6.5 3.2 6.5 3.5V8.5C6.5 8.8 6.3 9 6 9Z" fill="white"/>
<path d="M8.5 6.5H3.5C3.2 6.5 3 6.3 3 6C3 5.7 3.2 5.5 3.5 5.5H8.5C8.8 5.5 9 5.7 9 6C9 6.3 8.8 6.5 8.5 6.5Z" fill="white"/>
</g>
<defs>
<clipPath id="clip0_157_1952">
<rect width="12" height="12" fill="white"/>
</clipPath>
</defs>
</svg>
