<svg width="27" height="27" viewBox="0 0 27 27" fill="none" xmlns="http://www.w3.org/2000/svg">
<path d="M13.4398 15.1217C14.3676 15.1217 15.1198 14.3696 15.1198 13.4417C15.1198 12.5139 14.3676 11.7617 13.4398 11.7617C12.5119 11.7617 11.7598 12.5139 11.7598 13.4417C11.7598 14.3696 12.5119 15.1217 13.4398 15.1217Z" fill="#888888"/>
<path d="M21.7561 5.12608C20.666 4.02524 19.3692 3.15063 17.9401 2.55249C16.511 1.95435 14.9778 1.64447 13.4286 1.64066C11.8794 1.63685 10.3447 1.93917 8.91266 2.53027C7.48065 3.12137 6.17953 3.98959 5.08407 5.08505C3.98861 6.18051 3.12039 7.48162 2.5293 8.91364C1.9382 10.3457 1.63587 11.8804 1.63968 13.4296C1.6435 14.9788 1.95337 16.512 2.55151 17.9411C3.14965 19.3702 4.02427 20.667 5.12511 21.757C6.21516 22.8579 7.51199 23.7325 8.94108 24.3306C10.3702 24.9288 11.9034 25.2386 13.4526 25.2425C15.0018 25.2463 16.5365 24.9439 17.9685 24.3528C19.4005 23.7617 20.7016 22.8935 21.7971 21.7981C22.8926 20.7026 23.7608 19.4015 24.3519 17.9695C24.943 16.5375 25.2453 15.0028 25.2415 13.4535C25.2377 11.9043 24.9278 10.3711 24.3297 8.94205C23.7315 7.51296 22.8569 6.21614 21.7561 5.12608ZM13.4406 17.6416C12.6099 17.6416 11.7979 17.3952 11.1072 16.9337C10.4165 16.4722 9.87817 15.8163 9.56029 15.0488C9.2424 14.2814 9.15922 13.4369 9.32128 12.6222C9.48334 11.8075 9.88335 11.0591 10.4707 10.4717C11.0581 9.88433 11.8065 9.48432 12.6212 9.32226C13.4359 9.1602 14.2804 9.24338 15.0479 9.56126C15.8153 9.87915 16.4713 10.4175 16.9328 11.1082C17.3943 11.7988 17.6406 12.6109 17.6406 13.4416C17.6393 14.5551 17.1964 15.6226 16.409 16.41C15.6217 17.1974 14.5541 17.6403 13.4406 17.6416Z" fill="#888888"/>
</svg>
